<svg width="20.000000" height="20.000000" viewBox="0 0 20 20" fill="none" xmlns="http://www.w3.org/2000/svg" xmlns:xlink="http://www.w3.org/1999/xlink">
	<desc>
			Created with Pixso.
	</desc>
	<defs>
		<clipPath id="clip2_2466">
			<rect rx="0.000000" width="19.000000" height="19.000000" transform="translate(0.500000 0.500000)" fill="white" fill-opacity="0"/>
		</clipPath>
	</defs>
	<g clip-path="url(#clip2_2466)">
		<path d="M10 17.08C10.76 17.08 11.67 16.55 12.46 15.25C12.69 14.86 12.9 14.43 13.07 13.95L6.92 13.95C7.1 14.43 7.3 14.86 7.53 15.25C8.32 16.55 9.23 17.08 10 17.08ZM6.54 12.7C6.35 11.87 6.25 10.96 6.25 10C6.25 9.03 6.35 8.12 6.54 7.29L13.45 7.29C13.64 8.12 13.75 9.03 13.75 10C13.75 10.96 13.64 11.87 13.45 12.7L6.54 12.7ZM14.4 13.95C14.11 14.83 13.73 15.62 13.29 16.27C14.33 15.72 15.22 14.92 15.87 13.95L14.4 13.95ZM16.54 12.7L14.73 12.7C14.9 11.85 15 10.94 15 10C15 9.05 14.9 8.14 14.73 7.29L16.54 7.29C16.89 8.12 17.08 9.04 17.08 10C17.08 10.96 16.89 11.87 16.54 12.7ZM5.27 12.7L3.45 12.7C3.1 11.87 2.91 10.96 2.91 10C2.91 9.04 3.1 8.12 3.45 7.29L5.27 7.29C5.09 8.14 5 9.05 5 10C5 10.94 5.09 11.85 5.27 12.7ZM4.12 13.95L5.59 13.95C5.88 14.83 6.26 15.62 6.7 16.27C5.66 15.72 4.78 14.92 4.12 13.95ZM6.92 6.04L13.07 6.04C12.9 5.56 12.69 5.13 12.46 4.75C11.67 3.44 10.76 2.91 10 2.91C9.23 2.91 8.32 3.44 7.53 4.75C7.3 5.13 7.1 5.56 6.92 6.04ZM14.4 6.04L15.87 6.04C15.22 5.07 14.33 4.27 13.29 3.72C13.73 4.37 14.11 5.16 14.4 6.04ZM6.7 3.72C6.26 4.37 5.88 5.16 5.59 6.04L4.12 6.04C4.78 5.07 5.66 4.27 6.7 3.72ZM10 1.66C14.6 1.66 18.33 5.39 18.33 10C18.33 14.6 14.6 18.33 10 18.33C5.39 18.33 1.66 14.6 1.66 10C1.66 5.39 5.39 1.66 10 1.66Z" fill="#212121" fill-opacity="1.000000" fill-rule="evenodd"/>
	</g>
</svg>
